<?xml version="1.0" encoding="UTF-8"?>
<svg xmlns="http://www.w3.org/2000/svg" id="Icons" viewBox="0 0 60 60" width="512" height="512"><path d="M22.987,5.545a1,1,0,0,0-1.212.727l-.621,2.486a1,1,0,0,0,.728,1.212,1.017,1.017,0,0,0,.243.03,1,1,0,0,0,.969-.758l.621-2.485A1,1,0,0,0,22.987,5.545Z"/><path d="M21.365,12.035a1,1,0,0,0-1.212.728l-1.378,5.51a1,1,0,0,0,.728,1.212.97.97,0,0,0,.243.031,1,1,0,0,0,.969-.758l1.378-5.511A1,1,0,0,0,21.365,12.035Z"/><path d="M35,29V26h3.315a7,7,0,0,0,6.79-8.7l-3-12A6.987,6.987,0,0,0,35.315,0H24.685A6.987,6.987,0,0,0,17.9,5.3l-3,12a7,7,0,0,0,6.79,8.7H25v3H16a5.006,5.006,0,0,0-5,5v1a4,4,0,0,0,4,4h1.25c1,2.057,5.052,3.345,9.75,3.806V45a1.993,1.993,0,0,0,1,1.722v2.466A48.657,48.657,0,0,0,13.837,54.34a3.02,3.02,0,0,0-1.419,3.431,3.024,3.024,0,0,0,4.652,1.682C18.223,58.643,22.345,56,27,56v1a3,3,0,0,0,6,0V56c4.655,0,8.777,2.643,9.929,3.452a3.027,3.027,0,1,0,3.233-5.112A48.642,48.642,0,0,0,33,49.188V46.722A1.993,1.993,0,0,0,34,45V42.806c4.7-.461,8.75-1.749,9.75-3.806H45a4,4,0,0,0,4-4V34a5.006,5.006,0,0,0-5-5ZM17.743,22.077a4.969,4.969,0,0,1-.909-4.29l3-12A4.994,4.994,0,0,1,24.685,2h10.63a4.994,4.994,0,0,1,4.851,3.787l3,12A5,5,0,0,1,38.315,24H21.685A4.97,4.97,0,0,1,17.743,22.077ZM27,26h6v3H27Zm2,21h2v2H29ZM45.65,57.251a.976.976,0,0,1-.985.749,1,1,0,0,1-.585-.184A20.41,20.41,0,0,0,33,54a1,1,0,0,0-2,0v3a1,1,0,0,1-2,0V54a1,1,0,0,0-2,0,20.409,20.409,0,0,0-11.081,3.817,1,1,0,0,1-.584.183.976.976,0,0,1-.985-.749,1.018,1.018,0,0,1,.492-1.183A46.982,46.982,0,0,1,28.094,51h3.813a46.862,46.862,0,0,1,13.25,5.068A1.017,1.017,0,0,1,45.65,57.251ZM32,45H28V42.948c.664.031,1.331.052,2,.052s1.336-.021,2-.052Zm-2-4c-5.425,0-9.3-1.031-11.016-2H41.016C39.305,39.969,35.425,41,30,41Zm17-7v1a2,2,0,0,1-2,2H15a2,2,0,0,1-2-2V34a3,3,0,0,1,3-3H44A3,3,0,0,1,47,34Z"/></svg>
