<svg height="512pt" viewBox="0 0 512 512.002" width="512pt" xmlns="http://www.w3.org/2000/svg"><path d="m348.070312 302.386719h19.238282c4.132812 0 7.484375-3.351563 7.484375-7.488281 0-4.132813-3.351563-7.484376-7.484375-7.484376h-19.238282c-4.132812 0-7.484374 3.351563-7.484374 7.484376 0 4.136718 3.351562 7.488281 7.484374 7.488281zm0 0"/><path d="m363.574219 378.007812c4.132812 0 7.484375-3.351562 7.484375-7.484374 0-4.132813-3.351563-7.484376-7.484375-7.484376h-19.238281c-4.136719 0-7.488282 3.351563-7.488282 7.484376 0 4.132812 3.351563 7.484374 7.488282 7.484374zm0 0"/><path d="m499.078125 214.289062h-26.386719v-45.851562c0-6.886719-5.601562-12.488281-12.488281-12.488281h-34.710937c-6.886719 0-12.488282 5.601562-12.488282 12.488281v45.851562h-8.351562v-7.460937c0-10.570313-8.601563-19.175781-19.175782-19.175781h-19.230468c-10.570313 0-19.175782 8.605468-19.175782 19.175781v7.460937h-83.550781v-21.09375h59.335938c14.394531 0 26.109375-11.710937 26.109375-26.109374v-140.976563c0-14.394531-11.714844-26.109375-26.109375-26.109375h-185.167969c-14.398438 0-26.113281 11.714844-26.113281 26.109375v39.597656c0 4.136719 3.351562 7.484375 7.484375 7.484375 4.136718 0 7.488281-3.347656 7.488281-7.484375v-39.597656c0-6.140625 4.996094-11.140625 11.140625-11.140625h185.167969c6.140625 0 11.140625 5 11.140625 11.140625v107.589844h-207.453125v-33.726563c0-4.136718-3.351563-7.488281-7.484375-7.488281-4.132813 0-7.484375 3.351563-7.484375 7.488281v67.113282c0 14.398437 11.710937 26.113281 26.109375 26.113281h59.335937v21.089843h-98.46875v-45.847656c0-6.886718-5.601562-12.492187-12.488281-12.492187h-34.710938c-6.886718 0-12.488281 5.605469-12.488281 12.492187v45.847656h-26.386719c-6.878906 0-12.476562 5.597657-12.476562 12.476563v25.015625c0 6.878906 5.597656 12.476562 12.476562 12.476562h17.148438v240.257813c0 4.136719 3.351562 7.488281 7.484375 7.488281h32.699219c4.136718 0 7.488281-3.351562 7.488281-7.488281v-240.257813h181.382813v186.035157c0 6.878906 5.59375 12.476562 12.472656 12.476562h21.214844c4.136718 0 7.484374-3.351562 7.484374-7.484375 0-4.136718-3.347656-7.484375-7.484374-7.484375h-18.71875v-107.285156h160.609374v107.28125h-107.957031c-4.136719 0-7.488281 3.351563-7.488281 7.484375 0 4.136719 3.351562 7.488281 7.488281 7.488281h107.957031v41.746094c0 4.132813 3.351563 7.484375 7.484376 7.484375h32.703124c4.132813 0 7.484376-3.351562 7.484376-7.484375v-240.257813h17.148437c6.878906 0 12.476563-5.597656 12.476563-12.476562v-25.015625c0-6.878906-5.597657-12.476563-12.476563-12.476563zm-71.074219-43.339843h29.6875v43.324219h-29.6875zm-65.933594 35.878906c0-2.300781 1.875-4.175781 4.175782-4.175781h19.230468c2.300782 0 4.175782 1.875 4.175782 4.175781v7.445313h-27.582032zm-224.382812-28.601563c-6.144531 0-11.140625-4.996093-11.140625-11.140624v-18.417969h207.449219v18.417969c0 6.144531-5 11.140624-11.140625 11.140624zm110.832031 16.015626v20.03125h-36.5v-20.03125zm-194.65625-23.292969h29.6875v43.324219h-29.6875zm8.460938 326.082031h-17.730469v-232.777344h17.730469zm371.933593-171.773438h-160.609374v-61h160.609374zm32.703126 171.773438h-17.734376v-232.777344h17.734376zm29.625-247.746094h-481.617188v-20.027344h481.617188zm0 0"/></svg>