<svg height="512pt" viewBox="-52 0 512 512.00074" width="512pt" xmlns="http://www.w3.org/2000/svg"><path d="m348.878906 60.726562c-37.773437-38.320312-88.179687-59.878906-141.9375-60.7031245-54.605468-.8476565-106.414062 20.0859375-145.835937 58.9062505-39.402344 38.808593-61.105469 90.242187-61.105469 144.828124 0 48.035157 17.03125 94.648438 47.972656 131.316407.113282.152343.234375.300781.359375.445312l.492188.5625c.917969 1.074219 1.847656 2.136719 2.738281 3.136719l50.546875 57.839844c2.726563 3.117187 7.46875 3.4375 10.585937.710937 3.121094-2.726562 3.441407-7.464843.714844-10.585937l-50.59375-57.894532c-.875-.976562-1.738281-1.964843-2.640625-3.019531l-.242187-.277343c-.066406-.089844-.136719-.175782-.210938-.261719-28.835937-34.015625-44.714844-77.332031-44.714844-121.972657 0-50.535156 20.109376-98.171874 56.628907-134.136718 36.535156-35.980469 84.492187-55.355469 135.074219-54.59375 49.796874.761718 96.492187 20.734375 131.484374 56.234375 35.027344 35.535156 54.320313 82.589843 54.320313 132.496093 0 44.640626-15.882813 87.957032-44.71875 121.972657-.148437.175781-.285156.355469-.414063.539062l-135.890624 170.082031c-.414063.515626-.9375.636719-1.300782.644532-.363281-.015625-.894531-.089844-1.328125-.585938l-77.449219-88.625c-2.726562-3.121094-7.46875-3.4375-10.589843-.714844-3.117188 2.726563-3.4375 7.46875-.710938 10.585938l77.453125 88.628906c3.183594 3.644532 7.753906 5.714844 12.582032 5.714844.125 0 .25 0 .371093-.003906 4.96875-.109375 9.59375-2.398438 12.695313-6.277344l136.183594-170.449219c.050781-.066406.101562-.128906.152343-.195312 30.9375-36.667969 47.96875-83.285157 47.96875-131.316407 0-53.871093-20.828125-104.667968-58.640625-143.03125zm0 0"/><path d="m125.761719 150.714844c-4.140625 0-7.5 3.359375-7.5 7.503906v105.847656h-5.878907c-4.140624 0-7.5 3.355469-7.5 7.5 0 4.144532 3.359376 7.503906 7.5 7.503906h194.921876c4.144531 0 7.503906-3.359374 7.503906-7.503906 0-4.144531-3.359375-7.5-7.503906-7.5h-2.296876v-100.921875c0-11.0625-8.996093-20.058593-20.058593-20.058593-4.140625 0-7.5 3.359374-7.5 7.503906 0 4.144531 3.359375 7.503906 7.5 7.503906 2.785156 0 5.050781 2.265625 5.050781 5.050781v100.921875h-70.863281v-100.921875c0-2.785156 2.265625-5.050781 5.050781-5.050781h30.339844c4.144531 0 7.503906-3.359375 7.503906-7.503906 0-4.144532-3.359375-7.503906-7.503906-7.503906h-30.339844c-1.746094 0-3.433594.25-5.050781.671874v-34.636718c0-11.058594-8.996094-20.054688-20.058594-20.054688h-60.761719c-11.058594 0-20.054687 8.996094-20.054687 20.054688v15.207031c0 4.144531 3.359375 7.503906 7.5 7.503906 4.144531 0 7.503906-3.359375 7.503906-7.503906v-15.207031c0-2.785156 2.265625-5.050782 5.050781-5.050782h60.761719c2.785156 0 5.054687 2.265626 5.054687 5.050782v154.945312h-70.867187v-105.847656c0-4.144531-3.359375-7.503906-7.503906-7.503906zm0 0"/><path d="m161.496094 124.332031c0 4.210938-3.417969 7.625-7.628906 7.625-4.210938 0-7.628907-3.414062-7.628907-7.625 0-4.214843 3.417969-7.628906 7.628907-7.628906 4.210937 0 7.628906 3.414063 7.628906 7.628906zm0 0"/><path d="m188.253906 124.332031c0 4.210938-3.414062 7.625-7.628906 7.625-4.210938 0-7.625-3.414062-7.625-7.625 0-4.214843 3.414062-7.628906 7.625-7.628906 4.214844 0 7.628906 3.414063 7.628906 7.628906zm0 0"/><path d="m161.496094 150.589844c0 4.210937-3.417969 7.628906-7.628906 7.628906-4.210938 0-7.628907-3.417969-7.628907-7.628906 0-4.214844 3.417969-7.628906 7.628907-7.628906 4.210937 0 7.628906 3.414062 7.628906 7.628906zm0 0"/><path d="m188.253906 150.589844c0 4.210937-3.414062 7.628906-7.628906 7.628906-4.210938 0-7.625-3.417969-7.625-7.628906 0-4.214844 3.414062-7.628906 7.625-7.628906 4.214844 0 7.628906 3.414062 7.628906 7.628906zm0 0"/><path d="m161.496094 178.472656c0 4.214844-3.417969 7.628906-7.628906 7.628906-4.210938 0-7.628907-3.414062-7.628907-7.628906 0-4.210937 3.417969-7.625 7.628907-7.625 4.210937 0 7.628906 3.414063 7.628906 7.625zm0 0"/><path d="m188.253906 178.472656c0 4.214844-3.414062 7.628906-7.628906 7.628906-4.210938 0-7.625-3.414062-7.625-7.628906 0-4.210937 3.414062-7.625 7.625-7.625 4.214844 0 7.628906 3.414063 7.628906 7.625zm0 0"/><path d="m161.496094 204.734375c0 4.210937-3.417969 7.625-7.628906 7.625-4.210938 0-7.628907-3.414063-7.628907-7.625 0-4.214844 3.417969-7.628906 7.628907-7.628906 4.210937 0 7.628906 3.414062 7.628906 7.628906zm0 0"/><path d="m188.253906 204.734375c0 4.210937-3.414062 7.625-7.628906 7.625-4.210938 0-7.625-3.414063-7.625-7.625 0-4.214844 3.414062-7.628906 7.625-7.628906 4.214844 0 7.628906 3.414062 7.628906 7.628906zm0 0"/><path d="m161.496094 233.867188c0 4.210937-3.417969 7.628906-7.628906 7.628906-4.210938 0-7.628907-3.417969-7.628907-7.628906 0-4.210938 3.417969-7.628907 7.628907-7.628907 4.210937 0 7.628906 3.417969 7.628906 7.628907zm0 0"/><path d="m188.253906 233.867188c0 4.210937-3.414062 7.628906-7.628906 7.628906-4.210938 0-7.625-3.417969-7.625-7.628906 0-4.210938 3.414062-7.628907 7.625-7.628907 4.214844 0 7.628906 3.417969 7.628906 7.628907zm0 0"/><path d="m270.71875 197.230469h-32.386719c-4.140625 0-7.5 3.359375-7.5 7.503906 0 4.140625 3.359375 7.5 7.5 7.5h32.386719c4.144531 0 7.503906-3.359375 7.503906-7.5 0-4.144531-3.359375-7.503906-7.503906-7.503906zm0 0"/><path d="m270.71875 170.972656h-32.386719c-4.140625 0-7.5 3.355469-7.5 7.5 0 4.144532 3.359375 7.503906 7.5 7.503906h32.386719c4.144531 0 7.503906-3.359374 7.503906-7.503906 0-4.144531-3.359375-7.5-7.503906-7.5zm0 0"/><path d="m270.71875 226.363281h-32.386719c-4.140625 0-7.5 3.359375-7.5 7.503907 0 4.144531 3.359375 7.503906 7.5 7.503906h32.386719c4.144531 0 7.503906-3.359375 7.503906-7.503906 0-4.144532-3.359375-7.503907-7.503906-7.503907zm0 0"/></svg>