<?xml version="1.0" encoding="utf-8"?>
<!-- Generator: Adobe Illustrator 25.2.0, SVG Export Plug-In . SVG Version: 6.00 Build 0)  -->
<svg version="1.1" id="Ebene_1" xmlns="http://www.w3.org/2000/svg" xmlns:xlink="http://www.w3.org/1999/xlink" x="0px" y="0px"
	viewBox="68 30 155 230" style="enable-background:new 0 0 290 290;" xml:space="preserve">
<style type="text/css">
	.st0{fill:#343A40;}
	.st1{fill:#FD5829;}
	.st2{fill:#FFFFFF;}
</style>
<path class="st1" d="M200.4,123.7v-18.2l0,0c0-30.5-24.8-55.4-55.4-55.4c-30.5,0-55.4,24.8-55.4,55.4c0,30.5,24.8,55.4,55.4,55.4
	c13.1,0,23.7,10.6,23.7,23.7c0,13.1-10.6,23.7-23.7,23.7c-13.1,0-23.7-10.6-23.7-23.7h0l-0.1-3.2l-11.8-4v9.1h0.1
	c1,18.8,16.5,33.8,35.5,33.8c19.6,0,35.6-16,35.6-35.6c0-19.6-16-35.6-35.6-35.6c-24,0-43.5-19.5-43.5-43.5
	c0-24,19.5-43.5,43.5-43.5c24,0,43.5,19.5,43.5,43.5l0,0V118L200.4,123.7z"/>
<path class="st1" d="M145,180.6v4h-15.8c0,8.7,7.1,15.8,15.8,15.8c8.7,0,15.8-7.1,15.8-15.8c0-8.7-7.1-15.8-15.8-15.8
	c-34.9,0-63.3-28.4-63.3-63.3c0-34.9,28.4-63.3,63.3-63.3c34.9,0,63.3,28.4,63.3,63.3l0,0c0.4,6.7-0.5,23.9-0.5,23.9
	s4.1,2.6,9.7,8.2c2.7-9.4,2.7-32.1,2.7-32.1l0,0c0-41.4-33.7-75.1-75.1-75.1S69.9,64,69.9,105.5S103.6,180.6,145,180.6z"/>
<path class="st1" d="M145,81.7c13.1,0,23.7,10.6,23.7,23.7l0,0l0.1,5.1l11.8,4v-9.1l0,0c0-19.6-16-35.6-35.6-35.6
	c-19.6,0-35.6,16-35.6,35.6c0,19.6,16,35.6,35.6,35.6c24,0,43.5,19.5,43.5,43.5c0,24-19.5,43.5-43.5,43.5c-24,0-43.5-19.5-43.5-43.5
	h0v-10.7l-11.9-5.7v18.2h0c1,29.7,25.4,53.5,55.3,53.5c30.5,0,55.4-24.8,55.4-55.4c0-30.5-24.8-55.4-55.4-55.4
	c-13.1,0-23.7-10.6-23.7-23.7C121.3,92.4,131.9,81.7,145,81.7z"/>
<path class="st1" d="M145,109.4v-4h15.8c0-8.7-7.1-15.8-15.8-15.8c-8.7,0-15.8,7.1-15.8,15.8c0,8.7,7.1,15.8,15.8,15.8
	c34.9,0,63.3,28.4,63.3,63.3c0,34.9-28.4,63.3-63.3,63.3c-34.9,0-63.3-28.4-63.3-63.3h-0.1c-0.2-7.6,0.6-22,0.6-22s-4.1-2.6-9.7-8.2
	c-2.3,7.8-2.6,24.7-2.7,30.3h0c0,0.1,0,0.3,0,0.4c0,0.9,0,1.5,0,1.5s0,0,0,0c1,40.6,34.3,73.3,75.1,73.3c41.4,0,75.1-33.7,75.1-75.1
	C220.1,143.1,186.4,109.4,145,109.4z"/>
</svg>
