<?xml version="1.0" encoding="utf-8"?>
<!-- Generator: Adobe Illustrator 25.2.0, SVG Export Plug-In . SVG Version: 6.00 Build 0)  -->
<svg version="1.1" id="Ebene_1" xmlns="http://www.w3.org/2000/svg" xmlns:xlink="http://www.w3.org/1999/xlink" x="0px" y="0px"
	 viewBox="0 0 591 253" style="enable-background:new 0 0 591 253;" xml:space="preserve">
<style type="text/css">
	.st0{fill:#343A40;}
	.st1{fill:#FD5829;}
	.st2{fill:#FFFFFF;}
</style>
<g>
	<path class="st0" d="M207.6,187.2c-2.5,0-4.8-0.5-6.9-1.4c-2.1-0.9-3.9-2.2-5.5-3.8c-1.6-1.6-2.8-3.5-3.6-5.6
		c-0.9-2.1-1.3-4.4-1.3-6.9c0-2.5,0.4-4.8,1.3-6.9c0.9-2.1,2.1-4,3.6-5.6c1.6-1.6,3.4-2.8,5.5-3.7c2.1-0.9,4.4-1.4,6.8-1.4
		c2.7,0,5.1,0.5,7.1,1.4c2,0.9,3.8,2.2,5.4,3.7l-3.2,3.2c-1.1-1.2-2.4-2.2-4-2.9c-1.6-0.7-3.3-1-5.3-1c-1.8,0-3.5,0.3-5,1
		c-1.5,0.6-2.8,1.6-3.9,2.7c-1.1,1.2-2,2.6-2.6,4.2c-0.6,1.6-0.9,3.4-0.9,5.3s0.3,3.7,0.9,5.3c0.6,1.6,1.5,3,2.6,4.2
		c1.1,1.2,2.4,2.1,3.9,2.7c1.5,0.6,3.2,1,5,1c2.1,0,4-0.4,5.6-1.1c1.6-0.7,2.9-1.7,4-2.9l3.2,3.2c-1.6,1.6-3.4,2.9-5.5,3.8
		S210.3,187.2,207.6,187.2z"/>
	<path class="st0" d="M245.5,187.2c-2.4,0-4.7-0.5-6.8-1.4c-2.1-0.9-3.9-2.2-5.5-3.8c-1.6-1.6-2.8-3.5-3.7-5.6
		c-0.9-2.1-1.3-4.4-1.3-6.9c0-2.5,0.4-4.8,1.3-6.9c0.9-2.1,2.1-4,3.6-5.6c1.6-1.6,3.4-2.9,5.5-3.7c2.1-0.9,4.3-1.3,6.8-1.3
		c2.4,0,4.7,0.4,6.8,1.3c2.1,0.9,3.9,2.1,5.5,3.7c1.6,1.6,2.8,3.5,3.7,5.6c0.9,2.1,1.3,4.4,1.3,6.9c0,2.4-0.4,4.7-1.3,6.9
		c-0.9,2.1-2.1,4-3.7,5.6c-1.6,1.6-3.4,2.9-5.5,3.8C250.2,186.8,247.9,187.2,245.5,187.2z M245.4,182.8c2.5,0,4.6-0.6,6.5-1.7
		c1.9-1.1,3.3-2.7,4.4-4.7c1.1-2,1.6-4.3,1.6-6.8c0-1.9-0.3-3.7-0.9-5.3c-0.6-1.6-1.5-3-2.6-4.2c-1.1-1.2-2.4-2.1-3.9-2.7
		c-1.5-0.6-3.2-1-5-1c-2.4,0-4.6,0.6-6.4,1.7c-1.9,1.1-3.3,2.7-4.4,4.6c-1.1,2-1.6,4.2-1.6,6.8c0,1.9,0.3,3.7,0.9,5.3
		c0.6,1.6,1.5,3,2.6,4.2c1.1,1.2,2.4,2.1,3.9,2.7C241.9,182.5,243.6,182.8,245.4,182.8z"/>
	<path class="st0" d="M279.5,186.8l-11.2-34.2h4.6l8.9,27.9h-1.3l8.7-27.9h3.4l8.7,27.9H300l8.9-27.9h4.6l-11.1,34.2H299l-8.8-27.9
		h1.3l-8.7,27.9H279.5z"/>
	<path class="st0" d="M336.4,187.2c-2.4,0-4.7-0.5-6.8-1.4c-2.1-0.9-3.9-2.2-5.5-3.8c-1.6-1.6-2.8-3.5-3.7-5.6
		c-0.9-2.1-1.3-4.4-1.3-6.9c0-2.5,0.4-4.8,1.3-6.9c0.9-2.1,2.1-4,3.6-5.6c1.6-1.6,3.4-2.9,5.5-3.7c2.1-0.9,4.3-1.3,6.8-1.3
		c2.4,0,4.7,0.4,6.8,1.3c2.1,0.9,3.9,2.1,5.5,3.7c1.6,1.6,2.8,3.5,3.7,5.6c0.9,2.1,1.3,4.4,1.3,6.9c0,2.4-0.4,4.7-1.3,6.9
		c-0.9,2.1-2.1,4-3.7,5.6c-1.6,1.6-3.4,2.9-5.5,3.8C341.1,186.8,338.8,187.2,336.4,187.2z M336.3,182.8c2.5,0,4.6-0.6,6.5-1.7
		c1.9-1.1,3.3-2.7,4.4-4.7c1.1-2,1.6-4.3,1.6-6.8c0-1.9-0.3-3.7-0.9-5.3c-0.6-1.6-1.5-3-2.6-4.2c-1.1-1.2-2.4-2.1-3.9-2.7
		c-1.5-0.6-3.2-1-5-1c-2.4,0-4.6,0.6-6.4,1.7c-1.9,1.1-3.3,2.7-4.4,4.6c-1.1,2-1.6,4.2-1.6,6.8c0,1.9,0.3,3.7,0.9,5.3
		c0.6,1.6,1.5,3,2.6,4.2c1.1,1.2,2.4,2.1,3.9,2.7C332.9,182.5,334.5,182.8,336.3,182.8z"/>
	<path class="st0" d="M362.3,186.8v-34.2h4.6v34.2H362.3z M365.4,171.9V168h9.3c2,0,3.6-0.5,4.6-1.5c1.1-1,1.6-2.4,1.6-4.1
		c0-1.6-0.5-3-1.6-4.1c-1.1-1.1-2.6-1.6-4.6-1.6h-9.3v-4h9.5c2.2,0,4.1,0.4,5.7,1.3c1.6,0.8,2.9,2,3.7,3.4c0.9,1.4,1.3,3.1,1.3,5
		c0,1.9-0.4,3.6-1.3,5.1c-0.9,1.4-2.1,2.6-3.7,3.4c-1.6,0.8-3.5,1.2-5.7,1.2H365.4z M382,186.8l-12.4-15.3l4.4-1.5l13.9,16.9H382z"
		/>
	<path class="st0" d="M399,186.8v-34.2h4.6v34.2H399z M420.2,186.8l-17.3-17.8l16.9-16.4h6l-18.2,17.6v-2.6l18.7,19.2H420.2z"/>
	<path class="st0" d="M435.4,186.8v-34.2h4.6v34.2H435.4z"/>
	<path class="st0" d="M454.5,186.8v-34.2h3.3l1.4,5.4v28.8H454.5z M478.1,186.8l-21-28.1l0.6-6.2l21.1,28L478.1,186.8z M478.1,186.8
		l-1.4-5.1v-29.1h4.6v34.2H478.1z"/>
	<path class="st0" d="M508.2,187.2c-2.4,0-4.6-0.5-6.7-1.4c-2.1-0.9-3.9-2.2-5.5-3.8c-1.6-1.6-2.8-3.5-3.7-5.6
		c-0.9-2.1-1.3-4.4-1.3-6.9c0-2.5,0.4-4.8,1.3-6.9c0.9-2.1,2.1-4,3.7-5.6c1.6-1.6,3.4-2.9,5.5-3.7c2.1-0.9,4.4-1.3,6.9-1.3
		c2.7,0,5.2,0.5,7.5,1.6c2.3,1.1,4.2,2.6,5.8,4.5l-3.2,3.2c-1.1-1.6-2.5-2.8-4.3-3.6c-1.8-0.8-3.7-1.3-5.8-1.3
		c-2.5,0-4.7,0.6-6.6,1.7c-1.9,1.1-3.4,2.7-4.5,4.6c-1.1,2-1.6,4.2-1.6,6.8c0,2.6,0.5,4.9,1.6,6.9c1.1,2,2.5,3.5,4.4,4.6
		c1.8,1.1,3.9,1.7,6.3,1.7c2.4,0,4.5-0.5,6.2-1.4c1.8-0.9,3.1-2.3,4.1-4.1c1-1.8,1.4-4,1.4-6.6l2.8,2h-14.8v-4.2h16.8v0.7
		c0,4-0.7,7.3-2.1,10c-1.4,2.7-3.3,4.7-5.8,6C514.3,186.6,511.4,187.2,508.2,187.2z"/>
	<path class="st0" d="M217.2,131.9c-3.7,0-7.1-0.5-10.4-1.4c-3.3-1-6.3-2.3-9-4.1c-2.8-1.8-5.1-3.9-7.2-6.4l8-8
		c2.4,2.9,5.1,5.1,8.3,6.5c3.1,1.4,6.6,2.1,10.5,2.1s6.8-0.7,9-2c2.1-1.3,3.2-3.2,3.2-5.6c0-2.4-0.8-4.2-2.5-5.6
		c-1.7-1.3-3.9-2.4-6.5-3.3c-2.7-0.9-5.5-1.7-8.5-2.6c-3-0.9-5.8-2-8.5-3.4c-2.7-1.4-4.8-3.3-6.5-5.6c-1.7-2.4-2.5-5.6-2.5-9.5
		c0-3.9,1-7.4,2.9-10.3c1.9-2.9,4.6-5.1,8.1-6.7c3.4-1.6,7.6-2.3,12.5-2.3c5.1,0,9.7,0.9,13.7,2.7c4,1.8,7.3,4.5,9.8,8.1l-8,8
		c-1.8-2.4-4.1-4.2-6.8-5.5c-2.7-1.3-5.8-1.9-9.2-1.9c-3.6,0-6.3,0.6-8.2,1.9c-1.9,1.2-2.8,3-2.8,5.2s0.8,3.9,2.5,5.1
		c1.7,1.2,3.8,2.2,6.5,3c2.7,0.8,5.5,1.7,8.5,2.5c2.9,0.9,5.7,2,8.4,3.5c2.7,1.5,4.8,3.4,6.5,5.9c1.7,2.5,2.5,5.7,2.5,9.8
		c0,6.2-2.2,11-6.5,14.6C230.4,130.1,224.5,131.9,217.2,131.9z"/>
	<path class="st0" d="M290.7,131.9c-6.4,0-12.2-1.5-17.4-4.5c-5.1-3-9.2-7.1-12.3-12.3c-3-5.2-4.5-11-4.5-17.4
		c0-6.3,1.5-12,4.5-17.1c3-5.1,7.1-9.2,12.3-12.2c5.1-3,10.9-4.5,17.4-4.5c6.3,0,12.1,1.5,17.3,4.5c5.2,3,9.3,7,12.3,12.2
		c3,5.1,4.5,10.9,4.5,17.2c0,6.4-1.5,12.2-4.5,17.4c-3,5.2-7.1,9.3-12.3,12.3C302.8,130.4,297,131.9,290.7,131.9z M290.7,119.9
		c4.1,0,7.8-1,11-2.9c3.2-1.9,5.7-4.6,7.6-7.9c1.8-3.4,2.8-7.2,2.8-11.5c0-4.2-0.9-8-2.8-11.3c-1.9-3.3-4.4-5.9-7.6-7.8
		c-3.2-1.9-6.8-2.8-10.9-2.8c-4.1,0-7.8,0.9-11,2.8c-3.2,1.9-5.7,4.5-7.6,7.8c-1.8,3.3-2.8,7.1-2.8,11.3c0,4.3,0.9,8.1,2.8,11.5
		c1.8,3.4,4.4,6,7.6,7.9C282.9,118.9,286.5,119.9,290.7,119.9z"/>
	<path class="st0" d="M341,130.5V65.1h12.4v65.4H341z M385.2,130.5V91c0-4.9-1.5-8.7-4.5-11.5c-3-2.8-6.7-4.2-11.2-4.2
		c-3,0-5.7,0.6-8.1,1.9c-2.4,1.3-4.3,3.1-5.8,5.4c-1.5,2.3-2.2,5-2.2,8.3l-5.1-2.5c0-5,1.1-9.3,3.2-12.9c2.2-3.7,5.1-6.5,8.9-8.6
		c3.8-2.1,8-3.1,12.7-3.1c4.6,0,8.7,1,12.5,3c3.7,2,6.7,4.9,8.8,8.5c2.2,3.7,3.2,8,3.2,13.1v42.1H385.2z M429.5,130.5V91
		c0-4.9-1.5-8.7-4.5-11.5c-3-2.8-6.7-4.2-11.1-4.2c-3,0-5.8,0.6-8.2,1.9c-2.4,1.3-4.4,3.1-5.9,5.4c-1.5,2.3-2.2,5-2.2,8.3l-7-2.5
		c0.3-5,1.6-9.4,4.1-13c2.4-3.6,5.6-6.5,9.4-8.5c3.9-2.1,8.1-3.1,12.7-3.1c4.8,0,9,1,12.8,3c3.8,2,6.8,4.9,9,8.5
		c2.2,3.7,3.4,8.1,3.4,13.2v42H429.5z"/>
	<path class="st0" d="M489,131.9c-6,0-11.4-1.5-16.3-4.5c-4.9-3-8.7-7-11.5-12.2c-2.8-5.1-4.2-10.9-4.2-17.4
		c0-6.4,1.4-12.2,4.2-17.4c2.8-5.1,6.6-9.2,11.4-12.3c4.8-3,10.3-4.5,16.3-4.5c5,0,9.4,1,13.3,3.1c3.9,2.1,7,4.9,9.4,8.5
		c2.4,3.6,3.7,7.8,4,12.6v19.7c-0.3,4.7-1.6,8.9-3.9,12.5c-2.3,3.7-5.5,6.5-9.4,8.6C498.6,130.8,494.1,131.9,489,131.9z
		 M491.1,120.2c6.1,0,11.1-2.1,14.9-6.3c3.8-4.2,5.6-9.5,5.6-16c0-4.5-0.8-8.4-2.5-11.8c-1.7-3.4-4.1-6-7.2-7.8
		c-3.1-1.9-6.7-2.8-10.9-2.8s-7.8,1-10.9,2.9s-5.6,4.6-7.4,7.9c-1.8,3.4-2.7,7.2-2.7,11.5c0,4.4,0.9,8.3,2.7,11.6
		c1.8,3.4,4.3,6,7.5,7.9C483.3,119.2,487,120.2,491.1,120.2z M510.8,130.5v-17.6l2.3-16l-2.3-15.8v-16h12.5v65.4H510.8z"/>
</g>
<path class="st1" d="M153.1,111.6V99.7l0,0c0-19.9-16.2-36-36-36c-19.9,0-36,16.2-36,36c0,19.9,16.2,36,36,36
	c8.5,0,15.4,6.9,15.4,15.4c0,8.5-6.9,15.4-15.4,15.4c-8.5,0-15.4-6.9-15.4-15.4h0l0-2.1l-7.7-2.6v5.9H94c0.6,12.2,10.7,22,23.1,22
	c12.8,0,23.2-10.4,23.2-23.2c0-12.8-10.4-23.2-23.2-23.2c-15.6,0-28.3-12.7-28.3-28.3c0-15.6,12.7-28.3,28.3-28.3
	c15.6,0,28.3,12.7,28.3,28.3l0,0v8.2L153.1,111.6z"/>
<path class="st1" d="M117.1,148.6v2.6h-10.3c0,5.7,4.6,10.3,10.3,10.3c5.7,0,10.3-4.6,10.3-10.3c0-5.7-4.6-10.3-10.3-10.3
	c-22.7,0-41.2-18.5-41.2-41.2c0-22.7,18.5-41.2,41.2-41.2c22.7,0,41.2,18.5,41.2,41.2l0,0c0.2,4.4-0.4,15.5-0.4,15.5
	s2.7,1.7,6.3,5.4c1.8-6.1,1.8-20.9,1.8-20.9l0,0c0-27-21.9-48.9-48.9-48.9S68.2,72.8,68.2,99.7S90.1,148.6,117.1,148.6z"/>
<path class="st1" d="M117.1,84.3c8.5,0,15.4,6.9,15.4,15.4l0,0l0.1,3.3l7.7,2.6v-5.9l0,0c0-12.8-10.4-23.2-23.2-23.2
	c-12.8,0-23.2,10.4-23.2,23.2c0,12.8,10.4,23.2,23.2,23.2c15.6,0,28.3,12.7,28.3,28.3c0,15.6-12.7,28.3-28.3,28.3
	c-15.6,0-28.3-12.7-28.3-28.3h0v-7l-7.7-3.7v11.8h0c0.6,19.3,16.5,34.8,36,34.8c19.9,0,36-16.2,36-36c0-19.9-16.2-36-36-36
	c-8.5,0-15.4-6.9-15.4-15.4C101.7,91.2,108.6,84.3,117.1,84.3z"/>
<path class="st1" d="M117.1,102.3v-2.6h10.3c0-5.7-4.6-10.3-10.3-10.3c-5.7,0-10.3,4.6-10.3,10.3c0,5.7,4.6,10.3,10.3,10.3
	c22.7,0,41.2,18.5,41.2,41.2c0,22.7-18.5,41.2-41.2,41.2c-22.7,0-41.2-18.5-41.2-41.2h0c-0.1-4.9,0.4-14.3,0.4-14.3
	s-2.7-1.7-6.3-5.4c-1.5,5.1-1.7,16.1-1.8,19.7h0c0,0.1,0,0.2,0,0.2c0,0.6,0,0.9,0,0.9s0,0,0,0c0.6,26.4,22.3,47.7,48.9,47.7
	c27,0,48.9-21.9,48.9-48.9C166,124.2,144.1,102.3,117.1,102.3z"/>
</svg>
