<?xml version="1.0" encoding="utf-8"?>
<!-- Generator: Adobe Illustrator 25.2.0, SVG Export Plug-In . SVG Version: 6.00 Build 0)  -->
<svg version="1.1" id="Ebene_1" xmlns="http://www.w3.org/2000/svg" xmlns:xlink="http://www.w3.org/1999/xlink" x="0px" y="0px"
	 viewBox="0 0 290 290" style="enable-background:new 0 0 290 290;" xml:space="preserve">
<style type="text/css">
	.st0{fill:#343A40;}
	.st1{fill:#FD5829;}
	.st2{fill:#FFFFFF;}
</style>
<path class="st1" d="M166.3,200.4h18.2l0,0c30.5,0,55.4-24.8,55.4-55.4c0-30.5-24.8-55.4-55.4-55.4c-30.5,0-55.4,24.8-55.4,55.4
	c0,13.1-10.6,23.7-23.7,23.7c-13.1,0-23.7-10.6-23.7-23.7c0-13.1,10.6-23.7,23.7-23.7v0l3.2-0.1l4-11.8h-9.1v0.1
	c-18.8,1-33.8,16.5-33.8,35.5c0,19.6,16,35.6,35.6,35.6c19.6,0,35.6-16,35.6-35.6c0-24,19.5-43.5,43.5-43.5
	c24,0,43.5,19.5,43.5,43.5c0,24-19.5,43.5-43.5,43.5l0,0H172L166.3,200.4z"/>
<path class="st1" d="M109.4,145h-4v-15.8c-8.7,0-15.8,7.1-15.8,15.8c0,8.7,7.1,15.8,15.8,15.8c8.7,0,15.8-7.1,15.8-15.8
	c0-34.9,28.4-63.3,63.3-63.3c34.9,0,63.3,28.4,63.3,63.3c0,34.9-28.4,63.3-63.3,63.3l0,0c-6.7,0.4-23.9-0.5-23.9-0.5
	s-2.6,4.1-8.2,9.7c9.4,2.7,32.1,2.7,32.1,2.7l0,0c41.4,0,75.1-33.7,75.1-75.1S226,69.9,184.5,69.9S109.4,103.6,109.4,145z"/>
<path class="st1" d="M208.3,145c0,13.1-10.6,23.7-23.7,23.7l0,0l-5.1,0.1l-4,11.8h9.1l0,0c19.6,0,35.6-16,35.6-35.6
	c0-19.6-16-35.6-35.6-35.6c-19.6,0-35.6,16-35.6,35.6c0,24-19.5,43.5-43.5,43.5C81.5,188.5,62,169,62,145c0-24,19.5-43.5,43.5-43.5
	v0h10.7l5.7-11.9h-18.2v0c-29.7,1-53.5,25.4-53.5,55.3c0,30.5,24.8,55.4,55.4,55.4c30.5,0,55.4-24.8,55.4-55.4
	c0-13.1,10.6-23.7,23.7-23.7C197.6,121.3,208.3,131.9,208.3,145z"/>
<path class="st1" d="M180.6,145h4v15.8c8.7,0,15.8-7.1,15.8-15.8c0-8.7-7.1-15.8-15.8-15.8c-8.7,0-15.8,7.1-15.8,15.8
	c0,34.9-28.4,63.3-63.3,63.3c-34.9,0-63.3-28.4-63.3-63.3c0-34.9,28.4-63.3,63.3-63.3v-0.1c7.6-0.2,22,0.6,22,0.6s2.6-4.1,8.2-9.7
	c-7.8-2.3-24.7-2.6-30.3-2.7v0c-0.1,0-0.3,0-0.4,0c-0.9,0-1.5,0-1.5,0s0,0,0,0c-40.6,1-73.3,34.3-73.3,75.1
	c0,41.4,33.7,75.1,75.1,75.1C146.9,220.1,180.6,186.4,180.6,145z"/>
</svg>
